<?xml version="1.0" encoding="utf-8"?>
<!-- Generator: Adobe Illustrator 23.0.3, SVG Export Plug-In . SVG Version: 6.00 Build 0)  -->
<svg version="1.1" id="Layer_1" xmlns="http://www.w3.org/2000/svg" xmlns:xlink="http://www.w3.org/1999/xlink" x="0px" y="0px"
	 viewBox="0 0 145 145" style="enable-background:new 0 0 145 145;" xml:space="preserve">
<g>
	<g>
		<g>
			<path d="M72.6,102.3c-5,0-9.5-1.2-13.5-3.5c-5-2.9-8.4-7.6-10.3-14l9-2.6c1.2,4.1,3.3,7,6.2,8.7c2.5,1.4,5.4,2.1,8.7,2.1
				c0.5,0,1,0,1.3,0s0.8-0.1,1.3-0.2c1.4-0.2,2.7-0.6,3.9-1.1c3.1-1.5,4.8-3.9,5.1-7.4c0.1-1.7-0.4-3.2-1.5-4.5
				c-1.9-2.3-5.1-3.6-9.6-3.9c-8.6-0.6-14.9-2.7-18.9-6.2c-3.2-2.8-4.7-6.4-4.7-10.8c0-5.9,2.3-10.5,7-14.1c4.1-3.1,9-4.7,14.7-4.7
				c6.8,0,12.6,2.4,17.2,7.3c1.4,1.6,2.7,3.3,3.8,5.1c0.3,0.6,1,2,1.9,4.1l-8.7,3.3c-0.8-1.6-1.4-2.8-1.8-3.5
				c-0.4-0.8-1.1-1.6-2-2.5c-2.8-2.9-6.3-4.4-10.4-4.4c-1.2,0-2.5,0.2-3.9,0.5c-1.5,0.3-2.9,0.8-4.1,1.5c-2.9,1.7-4.4,4.1-4.4,7.3
				c0,4.5,5,7.1,14.9,7.7c7.1,0.5,12.4,2.8,16.1,7c2.8,3.3,4.1,7.1,3.8,11.4c-0.4,5.6-2.9,10-7.3,13.2C82.5,101,78,102.3,72.6,102.3
				L72.6,102.3L72.6,102.3z"/>
		</g>
		<path d="M145,145H0V0h145V145z M12,134h122V12H12V134z"/>
	</g>
	<path d="M109.7,94.7c0,1.8-0.6,3.3-1.9,4.6c-1.2,1.3-2.8,1.9-4.6,1.9c-1.8,0-3.3-0.6-4.6-1.9c-1.3-1.3-1.9-2.8-1.9-4.6
		c0-1.8,0.6-3.3,1.9-4.6c1.3-1.3,2.8-1.9,4.6-1.9c1.8,0,3.3,0.6,4.6,1.9C109.1,91.3,109.7,92.9,109.7,94.7z"/>
</g>
</svg>
