<?xml version="1.0" encoding="utf-8"?>
<!-- Generator: Adobe Illustrator 23.0.3, SVG Export Plug-In . SVG Version: 6.00 Build 0)  -->
<svg version="1.1" id="Calque_1" xmlns="http://www.w3.org/2000/svg" xmlns:xlink="http://www.w3.org/1999/xlink" x="0px" y="0px"
	 viewBox="0 0 752.3 145" style="enable-background:new 0 0 752.3 145;" xml:space="preserve">
<g>
	<g>
		<path d="M193.3,102.6c-5,0-9.5-1.2-13.5-3.5c-5-2.9-8.4-7.6-10.3-14l9-2.6c1.2,4.1,3.3,7,6.2,8.7c2.5,1.4,5.4,2.1,8.7,2.1
			c0.5,0,1,0,1.3,0c0.3,0,0.8-0.1,1.3-0.2c1.4-0.2,2.7-0.6,3.9-1.1c3.1-1.5,4.8-3.9,5.1-7.4c0.1-1.7-0.4-3.2-1.5-4.5
			c-1.9-2.3-5.1-3.6-9.6-3.9c-8.6-0.6-14.9-2.7-18.9-6.2c-3.2-2.8-4.7-6.4-4.7-10.8c0-5.9,2.3-10.5,7-14.1c4.1-3.1,9-4.7,14.7-4.7
			c6.8,0,12.6,2.4,17.2,7.3c1.4,1.6,2.7,3.3,3.8,5.1c0.3,0.6,1,2,1.9,4.1l-8.7,3.3c-0.8-1.6-1.4-2.8-1.8-3.5c-0.4-0.8-1.1-1.6-2-2.5
			c-2.8-2.9-6.3-4.4-10.4-4.4c-1.2,0-2.5,0.2-3.9,0.5c-1.5,0.3-2.9,0.8-4.1,1.5c-2.9,1.7-4.4,4.1-4.4,7.3c0,4.5,5,7.1,14.9,7.7
			c7.1,0.5,12.4,2.8,16.1,7c2.8,3.3,4.1,7.1,3.8,11.4c-0.5,5.6-2.9,10-7.3,13.2C203.2,101.2,198.7,102.6,193.3,102.6L193.3,102.6
			L193.3,102.6z"/>
		<path d="M244.8,57.1c6.2,0,11.5,2.2,15.8,6.6c4.4,4.4,6.6,9.7,6.6,15.8l-0.1,2.9h-35.3c0.3,2.2,1.7,4.5,4,6.9
			c2.5,2.3,5.5,3.5,8.9,3.5c2.5,0,4.8-0.7,6.9-2c2-1.2,3.8-3.3,5.4-6.4l8.5,3.7c-2.4,4.8-5.3,8.3-8.9,10.5c-3.6,2.3-7.6,3.5-12,3.5
			c-6.2,0-11.5-2.2-15.8-6.6c-4.4-4.4-6.6-9.7-6.6-15.9c0-6.2,2.2-11.5,6.6-15.8C233.3,59.3,238.6,57.1,244.8,57.1z M256.4,73.2
			c-0.7-1.4-2-2.8-3.9-4.3c-2.3-1.7-4.9-2.5-7.7-2.5c-2.9,0-5.4,0.8-7.7,2.5c-1.9,1.5-3.2,3-3.9,4.3H256.4z"/>
		<path d="M339.8,101.5h-9.3v-26c0-2.5-0.9-4.7-2.7-6.4c-1.8-1.8-3.9-2.7-6.4-2.7c-2.5,0-4.7,0.9-6.4,2.7c-1.7,1.8-2.6,3.9-2.7,6.4
			v26.1h-9.3v-26c0-2.5-0.9-4.7-2.6-6.4c-1.8-1.8-3.9-2.7-6.4-2.7c-2.5,0-4.7,0.9-6.4,2.7c-1.7,1.8-2.6,3.9-2.6,6.4v26h-9.3V57.7
			h9.3v1.9c2.8-1.6,5.8-2.4,9.1-2.4c3,0,5.9,0.7,8.6,2.1c1.4,0.7,3.1,2,5.1,4c1.6-1.7,3.3-3,5.1-4c2.7-1.4,5.6-2.1,8.6-2.1
			c5,0,9.3,1.8,12.9,5.4c3.6,3.6,5.4,7.9,5.4,12.9L339.8,101.5L339.8,101.5z"/>
		<path d="M351.9,52.5c-1.1-1.1-1.7-2.4-1.7-4c0-1.6,0.6-2.9,1.7-4s2.4-1.7,4-1.7c1.6,0,2.9,0.6,4,1.7s1.7,2.5,1.7,4
			c0,1.5-0.6,2.9-1.7,4c-1.1,1.1-2.4,1.7-4,1.7C354.3,54.2,353,53.6,351.9,52.5z M351.2,57.7h9.3v43.8h-9.3V57.7z"/>
		<path d="M408.5,101.5h-9.3v-26c0-2.5-0.9-4.7-2.7-6.4c-1.8-1.8-3.9-2.7-6.4-2.7c-2.5,0-4.7,0.9-6.4,2.7c-1.8,1.8-2.7,3.9-2.7,6.4
			v26h-9.3V57.7h9.3v1.8c2.9-1.6,5.9-2.4,9.1-2.3c5,0,9.3,1.8,12.9,5.4c3.6,3.6,5.4,7.9,5.4,12.9L408.5,101.5L408.5,101.5z"/>
		<path d="M439.5,102.1c-6.2,0-11.5-2.2-15.8-6.6c-4.4-4.4-6.6-9.7-6.6-15.8c0-6.2,2.2-11.5,6.6-15.9c4.4-4.4,9.7-6.6,15.8-6.6
			c6.2,0,10.6,1.3,13.2,3.9v-3.4h9.3v43.8h-9.3v-3.3C450.1,100.8,445.7,102.1,439.5,102.1z M439.5,66.4c-3.6,0-6.7,1.3-9.3,3.9
			c-2.6,2.6-3.9,5.7-3.9,9.3c0,3.7,1.3,6.8,3.9,9.3c2.6,2.6,5.7,3.9,9.3,3.9c3.7,0,6.8-1.3,9.4-3.9c2.6-2.6,3.9-5.7,3.9-9.3
			s-1.3-6.8-3.9-9.3C446.3,67.7,443.2,66.4,439.5,66.4z"/>
		<path d="M474.1,52.5c-1.1-1.1-1.7-2.4-1.7-4c0-1.6,0.6-2.9,1.7-4c1.1-1.1,2.4-1.7,4-1.7c1.6,0,2.9,0.6,4,1.7s1.7,2.5,1.7,4
			c0,1.5-0.6,2.9-1.7,4c-1.1,1.1-2.5,1.7-4,1.7C476.5,54.2,475.2,53.6,474.1,52.5z M473.4,57.7h9.3v43.8h-9.3V57.7z"/>
		<path d="M514.7,57.1v9.3h-2.3c-2.5,0-4.6,0.9-6.4,2.7c-1.8,1.8-2.7,3.9-2.7,6.4v26h-9.3V57.7h9.3v1.6c2.8-1.3,5.9-2,9.1-2.1H514.7
			z"/>
		<path d="M541.6,57.1c6.2,0,11.5,2.2,15.8,6.6c4.4,4.4,6.6,9.7,6.6,15.8l-0.1,2.9h-35.3c0.3,2.2,1.7,4.5,4,6.9
			c2.5,2.3,5.5,3.5,8.9,3.5c2.5,0,4.8-0.7,6.9-2c2-1.2,3.8-3.3,5.4-6.4l8.5,3.7c-2.4,4.8-5.3,8.3-8.9,10.5c-3.6,2.3-7.6,3.5-12,3.5
			c-6.2,0-11.5-2.2-15.8-6.6c-4.4-4.4-6.6-9.7-6.6-15.9c0-6.2,2.2-11.5,6.6-15.8C530.2,59.3,535.5,57.1,541.6,57.1z M553.2,73.2
			c-0.7-1.4-2-2.8-3.9-4.3c-2.3-1.7-4.9-2.5-7.7-2.5c-2.9,0-5.4,0.8-7.7,2.5c-1.9,1.5-3.2,3-3.9,4.3H553.2z"/>
		<path d="M632.2,88.1c-2.4,4.8-5.3,8.3-8.9,10.5c-3.6,2.3-7.6,3.5-12,3.5c-6.2,0-11.5-2.2-15.9-6.6c-4.4-4.4-6.6-9.7-6.6-15.9
			c0-6.2,2.2-11.5,6.6-15.8c4.4-4.4,9.7-6.6,15.9-6.6c4.3,0,8.3,1.2,12,3.5c3.5,2.2,6.5,5.7,8.9,10.4l-8.5,3.7
			c-1.6-3-3.4-5.1-5.4-6.4c-2.1-1.3-4.4-2-6.9-2c-3.7,0-6.8,1.3-9.3,3.9c-2.6,2.6-3.9,5.7-3.9,9.3c0,3.7,1.3,6.8,3.9,9.4
			c2.6,2.6,5.7,3.9,9.3,3.9c2.5,0,4.8-0.7,6.9-2c2-1.2,3.8-3.3,5.4-6.4L632.2,88.1z"/>
		<path d="M641.3,95.5c-4.4-4.4-6.6-9.7-6.6-15.9c0-6.2,2.2-11.5,6.6-15.8c4.4-4.4,9.7-6.6,15.9-6.6c6.2,0,11.5,2.2,15.8,6.6
			c4.4,4.4,6.6,9.7,6.6,15.8c0,6.2-2.2,11.5-6.6,15.9c-4.4,4.4-9.7,6.6-15.8,6.6C651,102.1,645.7,99.9,641.3,95.5z M647.9,70.3
			c-2.6,2.6-3.9,5.7-3.9,9.3c0,3.7,1.3,6.8,3.9,9.4c2.6,2.6,5.7,3.9,9.3,3.9c3.7,0,6.8-1.3,9.3-3.9c2.6-2.6,3.9-5.7,3.9-9.4
			c0-3.7-1.3-6.8-3.9-9.3c-2.6-2.6-5.7-3.9-9.3-3.9C653.6,66.4,650.5,67.7,647.9,70.3z"/>
		<path d="M752.3,101.5H743v-26c0-2.5-0.9-4.7-2.7-6.4c-1.8-1.8-3.9-2.7-6.4-2.7c-2.5,0-4.7,0.9-6.4,2.7c-1.7,1.8-2.6,3.9-2.7,6.4
			v26.1h-9.3v-26c0-2.5-0.9-4.7-2.6-6.4c-1.8-1.8-3.9-2.7-6.4-2.7c-2.5,0-4.7,0.9-6.4,2.7c-1.7,1.8-2.6,3.9-2.6,6.4v26h-9.3V57.7
			h9.3v1.9c2.8-1.6,5.8-2.4,9.1-2.4c3,0,5.9,0.7,8.6,2.1c1.4,0.7,3.1,2,5.1,4c1.6-1.7,3.3-3,5.1-4c2.7-1.4,5.6-2.1,8.6-2.1
			c5,0,9.3,1.8,12.9,5.4c3.6,3.6,5.4,7.9,5.4,12.9L752.3,101.5L752.3,101.5z"/>
	</g>
	<g>
		<g>
			<g>
				<path d="M72.6,102.3c-5,0-9.5-1.2-13.5-3.5c-5-2.9-8.4-7.6-10.3-14l9-2.6c1.2,4.1,3.3,7,6.2,8.7c2.5,1.4,5.4,2.1,8.7,2.1
					c0.5,0,1,0,1.3,0c0.3,0,0.8-0.1,1.3-0.2c1.4-0.2,2.7-0.6,3.9-1.1c3.1-1.5,4.8-3.9,5.1-7.4c0.1-1.7-0.4-3.2-1.5-4.5
					c-1.9-2.3-5.1-3.6-9.6-3.9c-8.6-0.6-14.9-2.7-18.9-6.2c-3.2-2.8-4.7-6.4-4.7-10.8c0-5.9,2.3-10.5,7-14.1c4.1-3.1,9-4.7,14.7-4.7
					c6.8,0,12.6,2.4,17.2,7.3c1.4,1.6,2.7,3.3,3.8,5.1c0.3,0.6,1,2,1.9,4.1l-8.7,3.3c-0.8-1.6-1.4-2.8-1.8-3.5
					c-0.4-0.8-1.1-1.6-2-2.5c-2.8-2.9-6.3-4.4-10.4-4.4c-1.2,0-2.5,0.2-3.9,0.5c-1.5,0.3-2.9,0.8-4.1,1.5c-2.9,1.7-4.4,4.1-4.4,7.3
					c0,4.5,5,7.1,14.9,7.7c7.1,0.5,12.4,2.8,16.1,7c2.8,3.3,4.1,7.1,3.8,11.4c-0.4,5.6-2.9,10-7.3,13.2
					C82.5,101,78,102.3,72.6,102.3L72.6,102.3L72.6,102.3z"/>
			</g>
			<path d="M145,145H0V0h145V145z M12,134h122V12H12V134z"/>
		</g>
		<path d="M109.7,94.7c0,1.8-0.6,3.3-1.9,4.6c-1.2,1.3-2.8,1.9-4.6,1.9c-1.8,0-3.3-0.6-4.6-1.9c-1.3-1.3-1.9-2.8-1.9-4.6
			c0-1.8,0.6-3.3,1.9-4.6c1.3-1.3,2.8-1.9,4.6-1.9c1.8,0,3.3,0.6,4.6,1.9C109.1,91.3,109.7,92.9,109.7,94.7z"/>
	</g>
	<path d="M581.8,94.7c0,1.8-0.6,3.3-1.9,4.6c-1.2,1.3-2.8,1.9-4.6,1.9c-1.8,0-3.3-0.6-4.6-1.9c-1.3-1.3-1.9-2.8-1.9-4.6
		c0-1.8,0.6-3.3,1.9-4.6c1.3-1.3,2.8-1.9,4.6-1.9s3.3,0.6,4.6,1.9C581.2,91.3,581.8,92.9,581.8,94.7z"/>
</g>
</svg>
